<?xml version="1.0" encoding="UTF-8"?>
<svg width="319px" height="202px" viewBox="0 0 319 202" version="1.1" xmlns="http://www.w3.org/2000/svg" xmlns:xlink="http://www.w3.org/1999/xlink">
    <title>选择产品</title>
    <defs>
        <linearGradient x1="50%" y1="50%" x2="50%" y2="-24.5616319%" id="linearGradient-1">
            <stop stop-color="#F3F7FF" stop-opacity="0" offset="0%"></stop>
            <stop stop-color="#D1D8E6" offset="100%"></stop>
        </linearGradient>
        <linearGradient x1="49.9999999%" y1="-13.372231%" x2="49.9999999%" y2="85.1516912%" id="linearGradient-2">
            <stop stop-color="#CAD1DF" offset="0%"></stop>
            <stop stop-color="#E5EBF6" offset="58.1424198%"></stop>
            <stop stop-color="#F0F4FA" offset="100%"></stop>
        </linearGradient>
        <linearGradient x1="49.9999999%" y1="-13.372231%" x2="49.9999999%" y2="85.1516912%" id="linearGradient-3">
            <stop stop-color="#CAD1DF" offset="0%"></stop>
            <stop stop-color="#E5EBF6" offset="58.1424198%"></stop>
            <stop stop-color="#F0F4FA" offset="100%"></stop>
        </linearGradient>
        <linearGradient x1="49.9999999%" y1="-13.372231%" x2="49.9999999%" y2="85.1516912%" id="linearGradient-4">
            <stop stop-color="#CAD1DF" offset="0%"></stop>
            <stop stop-color="#E5EBF6" offset="58.1424198%"></stop>
            <stop stop-color="#F0F4FA" offset="100%"></stop>
        </linearGradient>
        <linearGradient x1="75.345661%" y1="52.0502202%" x2="73.4768435%" y2="20.0436762%" id="linearGradient-5">
            <stop stop-color="#8F9BB5" stop-opacity="0" offset="0%"></stop>
            <stop stop-color="#EAF0FA" offset="100%"></stop>
        </linearGradient>
        <linearGradient x1="49.9999999%" y1="-13.372231%" x2="49.9999999%" y2="85.1516912%" id="linearGradient-6">
            <stop stop-color="#CAD1DF" offset="0%"></stop>
            <stop stop-color="#E5EBF6" offset="58.1424198%"></stop>
            <stop stop-color="#F0F4FA" offset="100%"></stop>
        </linearGradient>
        <linearGradient x1="50%" y1="49.225579%" x2="45.218725%" y2="50.4024353%" id="linearGradient-7">
            <stop stop-color="#F7F9FE" stop-opacity="0" offset="0%"></stop>
            <stop stop-color="#8C929D" offset="100%"></stop>
        </linearGradient>
        <linearGradient x1="38.1283057%" y1="40.9449199%" x2="50%" y2="58.3686836%" id="linearGradient-8">
            <stop stop-color="#B8C0CA" offset="0%"></stop>
            <stop stop-color="#9EA6B2" offset="100%"></stop>
        </linearGradient>
        <linearGradient x1="44.2331255%" y1="0%" x2="34.2636976%" y2="97.2448074%" id="linearGradient-9">
            <stop stop-color="#B8C0CA" offset="0%"></stop>
            <stop stop-color="#9EA6B2" offset="100%"></stop>
        </linearGradient>
        <linearGradient x1="27.9628923%" y1="2.35774509%" x2="69.539108%" y2="89.6643318%" id="linearGradient-10">
            <stop stop-color="#CAD1DF" offset="0%"></stop>
            <stop stop-color="#E5EBF6" offset="100%"></stop>
        </linearGradient>
        <linearGradient x1="69.1815227%" y1="91.0461635%" x2="16.0355443%" y2="-20.77786%" id="linearGradient-11">
            <stop stop-color="#F2F3F6" offset="0%"></stop>
            <stop stop-color="#DFE4EC" offset="82.0492421%"></stop>
            <stop stop-color="#DAE0EA" offset="100%"></stop>
        </linearGradient>
        <linearGradient x1="50%" y1="0%" x2="50%" y2="100%" id="linearGradient-12">
            <stop stop-color="#F8F8F8" offset="0%"></stop>
            <stop stop-color="#FFFFFF" offset="100%"></stop>
        </linearGradient>
        <linearGradient x1="51.2294559%" y1="50%" x2="50%" y2="58.4890319%" id="linearGradient-13">
            <stop stop-color="#B8C0CA" offset="0%"></stop>
            <stop stop-color="#9EA6B2" offset="100%"></stop>
        </linearGradient>
        <linearGradient x1="50%" y1="0%" x2="50%" y2="99.0207981%" id="linearGradient-14">
            <stop stop-color="#D5D8DD" offset="0%"></stop>
            <stop stop-color="#BCC2CC" offset="100%"></stop>
        </linearGradient>
        <linearGradient x1="36.2813951%" y1="31.5932638%" x2="78.3731926%" y2="31.5932638%" id="linearGradient-15">
            <stop stop-color="#D9E1ED" offset="0%"></stop>
            <stop stop-color="#B8C0CD" offset="100%"></stop>
        </linearGradient>
        <linearGradient x1="27.0036441%" y1="39.5472388%" x2="80.8290265%" y2="39.5472388%" id="linearGradient-16">
            <stop stop-color="#D1D6E2" offset="0%"></stop>
            <stop stop-color="#999FA9" offset="100%"></stop>
        </linearGradient>
        <linearGradient x1="74.4660999%" y1="35.5644934%" x2="19.3590814%" y2="35.5644934%" id="linearGradient-17">
            <stop stop-color="#CAD1DF" offset="0%"></stop>
            <stop stop-color="#E5EBF6" offset="100%"></stop>
        </linearGradient>
        <linearGradient x1="49.9999999%" y1="-13.372231%" x2="49.9999999%" y2="85.1516912%" id="linearGradient-18">
            <stop stop-color="#CAD1DF" offset="0%"></stop>
            <stop stop-color="#E5EBF6" offset="58.1424198%"></stop>
            <stop stop-color="#F0F4FA" offset="100%"></stop>
        </linearGradient>
        <linearGradient x1="50%" y1="0.175240756%" x2="50%" y2="99.0973395%" id="linearGradient-19">
            <stop stop-color="#F2F3F6" offset="0%"></stop>
            <stop stop-color="#DAE0EA" offset="100%"></stop>
        </linearGradient>
        <linearGradient x1="49.9999999%" y1="-13.372231%" x2="49.9999999%" y2="85.1516912%" id="linearGradient-20">
            <stop stop-color="#CAD1DF" offset="0%"></stop>
            <stop stop-color="#E5EBF6" offset="58.1424198%"></stop>
            <stop stop-color="#F0F4FA" offset="100%"></stop>
        </linearGradient>
    </defs>
    <g id="第一部分" stroke="none" stroke-width="1" fill="none" fill-rule="evenodd">
        <g id="12-产品关系_未选择主产品" transform="translate(-475.000000, -524.000000)">
            <g id="选择产品" transform="translate(476.000000, 524.000000)">
                <ellipse id="椭圆形-copy" stroke="#FFFFFF" fill="url(#linearGradient-1)" cx="158.5" cy="156" rx="158.5" ry="45"></ellipse>
                <path d="M223.64229,96.1476324 L231.289348,103.531 L225.87929,103.530632 L232.465819,109.677044 L227.043869,109.677191 C227.2762,109.913789 227.514889,110.150386 227.759937,110.386983 C229.426603,111.996179 231.387388,113.605374 233.64229,115.21457 L213.64229,115.21457 C215.980447,113.626648 217.798443,112.234725 219.096278,111.038802 C219.51657,110.651513 219.959672,110.198097 220.425585,109.678553 L214.81876,109.677044 L221.40329,103.530632 L215.995231,103.531 L223.64229,96.1476324 Z" id="形状结合复制-2-copy" fill="url(#linearGradient-2)" opacity="0.9" transform="translate(223.642290, 105.681101) rotate(7.000000) translate(-223.642290, -105.681101) "></path>
                <path d="M208.55499,74 L213.907932,79.168357 L210.12199,79.168 L214.731461,83.4705882 L210.935649,83.4702358 C211.098422,83.6360057 211.265653,83.8017757 211.437343,83.9675456 C212.60401,85.0939824 213.976559,86.2204192 215.55499,87.346856 L201.55499,87.346856 C203.191701,86.2353106 204.464298,85.2609649 205.372782,84.4238188 C205.666814,84.1528752 205.976795,83.8356968 206.302724,83.4722836 L202.37852,83.4705882 L206.98699,79.168 L203.202049,79.168357 L208.55499,74 Z" id="形状结合复制-copy" fill="url(#linearGradient-3)" opacity="0.6" transform="translate(208.554990, 80.673428) rotate(5.000000) translate(-208.554990, -80.673428) "></path>
                <path d="M66.3925122,94.8823668 L76.3925122,103.882367 L70.0851584,103.882367 L78.625003,111.307932 L69.9333603,111.307792 C70.6115184,112.024408 71.3387648,112.741025 72.1150996,113.457642 C74.2817663,115.457642 76.8307859,117.457642 79.7621584,119.457642 L53.7621584,119.457642 C56.8017636,117.484082 59.1651586,115.754121 60.8523431,114.267759 C61.7307002,113.493952 62.6856919,112.507744 63.7173184,111.309137 L55.625003,111.307932 L64.1631584,103.882367 L56.3925122,103.882367 L66.3925122,94.8823668 Z" id="形状结合-copy" fill="url(#linearGradient-4)" opacity="0.9" transform="translate(66.762158, 107.170004) rotate(-11.000000) translate(-66.762158, -107.170004) "></path>
                <path d="M298,89.5555648 L20,90 L20,60.9724882 L25.6353592,58.0744006 L27.566012,56.9322711 C27.566012,56.9322711 44.7558012,62.0964989 59.4866467,58.361747 C74.2174923,54.6269951 72.3797105,52.5712812 78.1716688,44.2193686 C83.9636272,35.8674561 95.6707707,52.4682 108.254071,51.6700583 C125.940275,50.5482462 129.974551,42.5475349 153.245827,15.7459501 C176.517103,-11.0556347 185.075737,0.778125756 202.111607,18.5645792 C219.147477,36.3510327 216.75981,24.319903 236.02903,25.3473842 C255.298251,26.3748654 268.009865,78.5616202 297.976106,80.4134083 L298,89.5555648 Z" id="Path-2-Copy" fill="url(#linearGradient-5)" opacity="0.8"></path>
                <path d="M101,53 L104.823529,56.6916836 L102.119,56.691 L105.411765,59.7647059 L102.700833,59.7648238 C102.816985,59.8831077 102.936315,60.0013916 103.058824,60.1196755 C103.892157,60.9242732 104.872549,61.7288709 106,62.5334686 L96,62.5334686 C97.1690789,61.7395076 98.078077,61.0435463 98.7269941,60.4455849 C98.93723,60.2518575 99.1588808,60.0250383 99.3919464,59.7651272 L96.5882353,59.7647059 L99.881,56.691 L97.1764706,56.6916836 L101,53 Z" id="形状结合复制-copy" fill="url(#linearGradient-6)" opacity="0.5"></path>
                <path d="M125,147.116867 L226.453436,139.633344 L260.664063,147.022404 L129.225381,154.440135 C127.019752,154.564609 125.130829,152.8775 125.006355,150.67187 C125.002119,150.596818 125,150.521661 125,150.446489 L125,147.116867 L125,147.116867 Z" id="矩形" fill="url(#linearGradient-7)" opacity="0.8"></path>
                <g id="分组" transform="translate(125.000000, 55.000000)">
                    <path d="M31.7611674,1 C35.2150029,1 38.0148898,3.59989499 38.0148898,6.80702799 C38.0148898,6.96649491 38.0079676,7.12446054 37.9943868,7.28067991 L41.7060506,7.44064768 C45.5684676,7.60689752 48.5648031,10.8727772 48.3985532,14.7351942 C48.3902027,14.9291981 48.3737832,15.1227705 48.3493372,15.3154091 L48.2487633,16.10795 L13,14.9667107 L13.2778124,12.6788084 C13.7183832,9.05052237 16.8762369,6.37189911 20.5277926,6.52907286 L25.5078182,6.74291353 C25.544837,3.56531656 28.3303766,1 31.7611674,1 Z" id="形状结合" fill="url(#linearGradient-8)"></path>
                    <path d="M4.13945647,9.80959044 L57.7832921,11.6809731 C59.9368435,11.7561004 61.6438356,13.5236799 61.6438356,15.6785413 L61.6438356,89.748649 C61.6438356,91.8260464 60.0535773,93.557681 57.9836919,93.7341851 L4.33985624,98.3085238 C2.13870545,98.4962213 0.202161349,96.8639948 0.0144639333,94.662844 C0.00482567348,94.5498149 3.56660598e-15,94.436427 7.10542736e-15,94.3229878 L7.10542736e-15,13.8071587 C7.72306428e-15,11.5980197 1.790861,9.80715868 4,9.80715868 C4.04649609,9.80715868 4.09298864,9.80796939 4.13945647,9.80959044 Z" id="矩形" fill="url(#linearGradient-9)"></path>
                    <path d="M5.77794562,10.0591268 L58.6698852,11.9289086 C59.678972,11.9646286 60.5833069,12.3966823 61.23537,13.0722358 C61.8874331,13.7477893 62.2872245,14.6668425 62.2872245,15.6765613 L62.2872245,15.6765613 L62.2872245,89.7532358 C62.2872245,90.7261198 61.9151723,91.6181965 61.3008045,92.288019 C60.6864366,92.9578414 59.8297532,93.4054095 58.8604907,93.4892763 L58.8604907,93.4892763 L6.11004401,98.053583 C5.0783649,98.1428505 4.10817197,97.8054964 3.37358194,97.1879058 C2.64149983,96.5724236 2.14341466,95.6786149 2.05166591,94.6513705 L2.05166591,94.6513705 L2.03677784,13.8092828 C2.03677784,12.7737489 2.45651089,11.8362489 3.13512741,11.1576324 C3.81374394,10.4790159 4.75124394,10.0592828 5.77794562,10.0591268 L5.77794562,10.0591268 Z" id="矩形" stroke="url(#linearGradient-11)" stroke-width="0.5" fill="url(#linearGradient-10)"></path>
                    <polygon id="矩形" fill="#C7CDD4" points="5.05048961 12.5074449 59.8570578 13.7442551 59.8570578 89.6264129 5.05048961 93.7244587"></polygon>
                    <path d="M5.55255384,13.0081344 L59.8570578,14.1795389 C58.7188164,49.1837303 61.5925507,73.9202709 68.4782609,88.3891608 C59.8570578,86.4043083 37.0154074,88.3891608 9.31983912,93.7244587 C5.72328463,82.0504823 4.46752288,55.1450409 5.55255384,13.0081344 Z" id="矩形" fill="url(#linearGradient-12)"></path>
                    <path d="M33.948779,0.893388922 C37.4026146,0.893388922 40.2025015,3.49328391 40.2025015,6.70041691 C40.2025015,7.10852705 40.1571636,7.50680434 40.0709096,7.89114281 L43.737397,8.0484665 C47.4828466,8.20968172 50.436375,11.2930735 50.436375,15.0419911 L50.436375,16.0013389 L15.1876117,14.8600997 L15.1876117,14.1273815 C15.1876117,10.2613882 18.3216184,7.12738148 22.1876117,7.12738148 C22.2879872,7.12738148 22.388351,7.12954046 22.4886336,7.13385692 L27.7349945,7.36034071 C27.7086101,7.14375301 27.6950566,6.92355471 27.6950566,6.70041691 C27.6950566,3.49328391 30.4949435,0.893388922 33.948779,0.893388922 Z M34.3954735,3.57355569 C33.6553659,3.57355569 33.0553901,4.17353146 33.0553901,4.91363907 C33.0553901,5.65374669 33.6553659,6.25372245 34.3954735,6.25372245 C35.1355811,6.25372245 35.7355569,5.65374669 35.7355569,4.91363907 C35.7355569,4.17353146 35.1355811,3.57355569 34.3954735,3.57355569 Z" id="形状结合" fill="url(#linearGradient-13)"></path>
                    <path d="M33.948779,2.16715534e-13 C37.4026146,2.16715534e-13 40.2025015,2.59989499 40.2025015,5.80702799 C40.2025015,6.21513813 40.1571636,6.61341541 40.0709096,6.99775389 L43.737397,7.15507758 C47.4828466,7.3162928 50.436375,10.3996845 50.436375,14.1486021 L50.436375,15.10795 L15.1876117,13.9667107 L15.1876117,13.2339926 C15.1876117,9.36799931 18.3216184,6.23399256 22.1876117,6.23399256 C22.2879872,6.23399256 22.388351,6.23615154 22.4886336,6.240468 L27.7349945,6.46695179 C27.7086101,6.25036409 27.6950566,6.03016578 27.6950566,5.80702799 C27.6950566,2.59989499 30.4949435,2.16715534e-13 33.948779,2.16715534e-13 Z M34.3954735,2.68016677 C33.6553659,2.68016677 33.0553901,3.28014253 33.0553901,4.02025015 C33.0553901,4.76035776 33.6553659,5.36033353 34.3954735,5.36033353 C35.1355811,5.36033353 35.7355569,4.76035776 35.7355569,4.02025015 C35.7355569,3.28014253 35.1355811,2.68016677 34.3954735,2.68016677 Z" id="形状结合" fill="url(#linearGradient-14)"></path>
                    <g id="分组-5" transform="translate(14.142260, 27.223079)" fill="#E9ECEF" fill-rule="nonzero">
                        <path d="M0.0453512517,2.84217094e-14 L8.57644427,2.84217094e-14 L8.57644427,8.92442419 L0.0453512517,8.92442419 L0.0453512517,2.84217094e-14 Z M2.04535125,6.92442419 L6.57644427,6.92442419 L6.57644427,2 L2.04535125,2 L2.04535125,6.92442419 Z" id="路径-24"></path>
                        <path d="M0,15.5529786 L8.52031563,15.5529786 L9.0210653,24.2168378 L0.397423226,24.5105093 L0,15.5529786 Z M2.30771803,22.4442963 L6.90622799,22.2876976 L6.63257292,17.5529786 L2.0907025,17.5529786 L2.30771803,22.4442963 Z" id="路径-24复制"></path>
                        <polygon id="直线-18" points="12.5527962 5.4622121 12.5527962 3.4622121 40.0143804 3.4622121 40.0143804 5.4622121"></polygon>
                        <polygon id="直线-18复制" points="13.6719491 20.4198611 13.6349384 18.4202035 39.9957038 17.9323038 40.0327146 19.9319614"></polygon>
                    </g>
                </g>
                <g id="分组-3" transform="translate(190.362262, 84.176359)">
                    <polygon id="矩形" fill="url(#linearGradient-15)" transform="translate(8.619861, 20.584505) rotate(20.000000) translate(-8.619861, -20.584505) " points="6.03067117 14.1615841 11.2090517 14.1615841 11.2090517 27.0074259 6.03067117 27.0074259"></polygon>
                    <path d="M9.567712,3.05214978 L11.8115568,3.0484986 L11.8115568,3.71254497 L10.2747358,3.71254497 L10.2747358,9.32056966 C10.4317735,9.53729456 10.4605774,9.7903222 10.3611474,10.0796526 C10.2617174,10.368983 9.99723898,10.6403241 9.567712,10.8936759 L9.567712,3.05214978 Z" id="矩形" fill="#CED7E2" transform="translate(10.689634, 6.971087) rotate(20.000000) translate(-10.689634, -6.971087) "></path>
                    <path d="M13.2139446,1 C14.7327276,1 15.9639446,2.23121694 15.9639446,3.75 L15.9639446,15.865083 L15.9639446,15.865083 L10.4639446,15.865083 L10.4639446,3.75 C10.4639446,2.23121694 11.6951615,1 13.2139446,1 Z" id="矩形" fill="url(#linearGradient-16)" transform="translate(13.213945, 8.432542) rotate(20.000000) translate(-13.213945, -8.432542) "></path>
                    <rect id="矩形" fill="#EAEFF8" transform="translate(14.558953, 4.737161) rotate(20.000000) translate(-14.558953, -4.737161) " x="11.808953" y="4.23716127" width="5.5" height="1"></rect>
                    <path d="M2.79954346,26.832742 L5.64818298,26.8126625 C6.62362031,28.7712746 6.37719905,30.2244493 4.90891922,31.1721864 C3.44063939,32.1199236 2.66150876,33.6150441 2.57152735,35.6575479 L2.79954346,26.832742 Z" id="矩形复制-2" fill="url(#linearGradient-17)" transform="translate(4.401873, 31.235105) rotate(20.000000) translate(-4.401873, -31.235105) "></path>
                    <path d="M1.5,34.5377798 C1.77614237,34.5377798 2,34.3139222 2,34.0377798 C2,33.7616374 1.77614237,33.5377798 1.5,33.5377798 C1.22385763,33.5377798 1,33.7616374 1,34.0377798 C1,34.3139222 1.22385763,34.5377798 1.5,34.5377798 Z" id="椭圆形" fill="#E2E8F1" transform="translate(1.500000, 34.037780) rotate(20.000000) translate(-1.500000, -34.037780) "></path>
                </g>
                <path d="M131.478522,1 C130.752199,8.03046554 128.592692,11.5456983 125,11.5456983 C126.834008,14.3382367 128.993515,15.497003 131.478522,15.0219971 C135.036863,14.4351407 137.972897,10.281976 140.286624,2.56250281 C136.158554,3.93553872 133.22252,3.41470445 131.478522,1 Z" id="路径-12" fill="url(#linearGradient-18)"></path>
                <path d="M95.67038,100 C93.7856583,107.488551 91.5621983,111.7857 89,112.891447 C96.9143458,117.215414 101.549408,122.0675 102.905186,127.447704 C106.968395,124.217931 109,120.321822 109,115.759376 C107.311672,109.71985 102.868466,104.466724 95.67038,100 Z" id="路径-13" fill="url(#linearGradient-19)"></path>
                <path d="M228.25089,41 C226.605595,46.9786322 224.855298,50.9420404 223,52.8902248 C225.082745,55.1954224 225.957894,58.3847176 225.625445,62.4581104 C231.51846,55.5852046 234.464968,50.8636931 234.464968,48.2935759 C234.464968,45.7234586 232.393609,43.2922667 228.25089,41 Z" id="路径-14" fill="url(#linearGradient-20)"></path>
            </g>
        </g>
    </g>
</svg>